<?xml version="1.0" encoding="UTF-8"?>
<svg version="1.1" xmlns="http://www.w3.org/2000/svg" width="500" height="500">
<path d="M0 0 C165 0 330 0 500 0 C500 165 500 330 500 500 C335 500 170 500 0 500 C0 335 0 170 0 0 Z " fill="#E0E0E0" transform="translate(0,0)"/>
<path d="M0 0 C0.99 0 1.98 0 3 0 C2.04114669 2.93702816 1.06164842 5.843404 -0.0703125 8.71875 C-3.93157648 18.90104613 -4.90785074 30.61682172 -1 41 C3.83979991 51.5983415 11.57808915 57.32810893 22 62 C26.14403622 63.38134541 30.03506538 63.18424179 34.375 63.1875 C35.65117187 63.20586914 35.65117187 63.20586914 36.953125 63.22460938 C41.41618112 63.23503708 44.94546621 63.11069352 49 61 C48.45730469 59.97261719 47.91460937 58.94523437 47.35546875 57.88671875 C40.35018111 44.40622927 36.82392407 32.30825698 36.8125 17 C36.80025391 16.13632812 36.78800781 15.27265625 36.77539062 14.3828125 C36.77345703 13.53460938 36.77152344 12.68640625 36.76953125 11.8125 C36.76542236 11.05582031 36.76131348 10.29914063 36.75708008 9.51953125 C37 7 37 7 39 0 C43.95 0 48.9 0 54 0 C53.96519531 2.02640625 53.93039063 4.0528125 53.89453125 6.140625 C53.873637 8.14647303 53.85286246 10.15232399 53.83520508 12.15820312 C53.82030077 13.53132226 53.79997003 14.90439539 53.77368164 16.27734375 C53.55673394 27.91594998 54.98798982 38.08084176 59.6875 48.75 C60.12449219 49.75546875 60.56148438 50.7609375 61.01171875 51.796875 C61.33785156 52.52390625 61.66398437 53.2509375 62 54 C67.5027686 51.8131546 69.4520304 47.07452769 72 42 C76.20943591 32.00063364 76.23973868 22.63584265 72.22265625 12.5859375 C70.71193608 9.39074022 68.95934407 6.46519427 66.953125 3.55859375 C66 2 66 2 66 0 C71.94 0 77.88 0 84 0 C89.45785636 13.01488825 93.73943725 27.74904136 88.375 41.75 C87.2578125 43.9453125 87.2578125 43.9453125 86 46 C85.34644531 47.14082031 85.34644531 47.14082031 84.6796875 48.3046875 C81.10144567 54.11199802 76.22500428 60.88749786 70 64 C74.97427991 75.02144372 86.67046184 80.93382423 97.32421875 85.390625 C116.44882061 91.58376859 139.27190098 89.61582606 157.375 81.25 C174.47810192 72.01386083 184.51357202 57.70840187 190.35693359 39.47875977 C191.59613483 34.7021424 192.12243488 29.83164326 192.6875 24.9375 C192.88182617 23.35291992 192.88182617 23.35291992 193.08007812 21.73632812 C193.39502445 19.15843412 193.70147722 16.57983838 194 14 C194.66 14 195.32 14 196 14 C196.74990743 37.99703787 192.60611858 58.8456418 176 77 C159.71282041 92.81810882 138.8846157 96.41528173 117.08764648 96.36816406 C97.47770309 95.99548502 76.21154929 89.444891 62.16015625 75.125 C58.97096803 71.86398013 58.97096803 71.86398013 54.65625 70.85546875 C52.81631697 71.04216784 50.98102396 71.27875496 49.15234375 71.5546875 C33.40227197 73.7796047 19.18364392 70.96352743 6 62 C-1.84955734 55.19395841 -7.47206484 46.39298467 -9 36 C-9.82586755 22.75904164 -8.27114693 12.85672891 -1.24609375 1.36328125 C-0.62927734 0.68845703 -0.62927734 0.68845703 0 0 Z " fill="#070707" transform="translate(165,263)"/>
<path d="M0 0 C2.22574335 0.22451458 4.45581519 0.40782878 6.6875 0.5625 C8.770625 0.706875 10.85375 0.85125 13 1 C13 9.58 13 18.16 13 27 C12.34 27 11.68 27 11 27 C10.84144531 26.34773438 10.68289062 25.69546875 10.51953125 25.0234375 C8.64282754 17.99357499 6.61027713 13.6602042 0.625 9.25 C-6.75154865 5.73735779 -14.81694274 4.33188962 -22.71875 6.875 C-29.51222027 9.9852635 -33.97660253 14.04517768 -37.375 20.6875 C-38.85745287 28.54450021 -39.02129132 35.96274019 -35 43 C-32.01736902 47.13874252 -28.52883774 50.17996146 -24.5 53.25 C-23.58710205 53.95636597 -23.58710205 53.95636597 -22.65576172 54.67700195 C-16.81772603 59.18008862 -10.92161662 63.60759207 -5 68 C-4.030625 67.175 -3.06125 66.35 -2.0625 65.5 C-1.09570312 64.67822266 -1.09570312 64.67822266 -0.109375 63.83984375 C1.30080254 62.60985556 2.68661601 61.35138373 4.046875 60.06640625 C19.42656705 45.6689938 38.83711868 39.56862477 59.625 39.6875 C61.19423218 39.69595947 61.19423218 39.69595947 62.79516602 39.70458984 C77.46354105 39.93169276 90.60103493 42.81398511 104.18798828 48.30615234 C106.17238464 49.09879162 106.17238464 49.09879162 108.99609375 49.83203125 C111.79256971 50.81191643 113.03080814 51.80148165 115 54 C115.67431641 56.14697266 115.67431641 56.14697266 115.9765625 58.5390625 C116.08685791 59.39540283 116.19715332 60.25174316 116.31079102 61.1340332 C116.68268874 65.09144343 116.87912722 69.02679466 117 73 C114.671875 73.21875 114.671875 73.21875 112 73 C110.515625 71.53125 110.515625 71.53125 109.25 69.5 C100.67157277 57.20787389 88.2089105 51.63727175 74 48 C73.37391846 47.82871582 72.74783691 47.65743164 72.1027832 47.48095703 C57.53878397 44.14982055 40.15209082 47.75783462 27.5234375 55.3046875 C19.79922714 60.29298394 19.79922714 60.29298394 13.68920898 66.99389648 C11.07635738 70.74145784 9.20951945 72.68728886 4.69873047 73.85351562 C0.61756525 74.26460577 -3.34142795 74.37948434 -7.4375 74.3125 C-8.15354401 74.31180511 -8.86958801 74.31111023 -9.60733032 74.31039429 C-20.11114238 74.22978278 -27.7241323 72.57298278 -35.49584961 65.06567383 C-37.05414839 63.41927007 -38.52506785 61.7207974 -40 60 C-40.91007813 59.09507812 -41.82015625 58.19015625 -42.7578125 57.2578125 C-49.33962459 50.63013412 -51.39514879 43.75143327 -51.375 34.6875 C-51.37258301 33.5586438 -51.37258301 33.5586438 -51.37011719 32.40698242 C-51.24020507 26.51572252 -50.17980048 22.03006765 -47 17 C-46.443125 15.989375 -45.88625 14.97875 -45.3125 13.9375 C-34.45569978 0.14642946 -17.13272093 -5.71090698 0 0 Z " fill="#060606" transform="translate(223,165)"/>
<path d="M0 0 C0.66 0.66 1.32 1.32 2 2 C1.8125 5 1.8125 5 1 8 C-2.22373677 10.14915785 -3.26703674 10.38286803 -7 10 C-9 8 -9 8 -9.3125 5.5625 C-9 3 -9 3 -7.875 1.1875 C-5.16554166 -0.52849028 -3.13704316 -0.333728 0 0 Z " fill="#131313" transform="translate(273,246)"/>
<path d="M0 0 C4 1 4 1 5.25 3.0625 C5.4975 3.701875 5.745 4.34125 6 5 C6.433125 4.175 6.86625 3.35 7.3125 2.5 C7.869375 1.675 8.42625 0.85 9 0 C9.99 0 10.98 0 12 0 C11.67 3.3 11.34 6.6 11 10 C10.01 10 9.02 10 8 10 C7.67 9.34 7.34 8.68 7 8 C6.67 8.66 6.34 9.32 6 10 C5.01 10 4.02 10 3 10 C3 8.68 3 7.36 3 6 C2.34 6 1.68 6 1 6 C1 7.32 1 8.64 1 10 C0.34 10 -0.32 10 -1 10 C-0.67 6.7 -0.34 3.4 0 0 Z " fill="#1D1D1D" transform="translate(204,246)"/>
<path d="M0 0 C2.375 -0.125 2.375 -0.125 5 0 C5.66 0.66 6.32 1.32 7 2 C6.60467975 4.45098556 5.78698574 6.63904279 5 9 C5.66 9 6.32 9 7 9 C7 9.66 7 10.32 7 11 C3.125 10.125 3.125 10.125 2 9 C1.67 9.66 1.34 10.32 1 11 C0.01 11 -0.98 11 -2 11 C-1.125 3.375 -1.125 3.375 0 0 Z " fill="#181818" transform="translate(126,245)"/>
<path d="M0 0 C2.31 0 4.62 0 7 0 C7.33 1.32 7.66 2.64 8 4 C7.01 4.33 6.02 4.66 5 5 C5 5.99 5 6.98 5 8 C5.99 8 6.98 8 8 8 C8 8.66 8 9.32 8 10 C6.35 9.67 4.7 9.34 3 9 C3 8.01 3 7.02 3 6 C2.34 6 1.68 6 1 6 C1 7.32 1 8.64 1 10 C0.34 10 -0.32 10 -1 10 C-1.125 3.375 -1.125 3.375 0 0 Z " fill="#131313" transform="translate(162,246)"/>
<path d="M0 0 C2.31 0 4.62 0 7 0 C7 1.65 7 3.3 7 5 C6.34 5 5.68 5 5 5 C5 5.99 5 6.98 5 8 C5.66 8 6.32 8 7 8 C7 8.66 7 9.32 7 10 C5.0625 9.625 5.0625 9.625 3 9 C2.67 8.34 2.34 7.68 2 7 C1.67 7.99 1.34 8.98 1 10 C0.34 10 -0.32 10 -1 10 C-1.125 3.375 -1.125 3.375 0 0 Z " fill="#0A0A0A" transform="translate(349,246)"/>
<path d="M0 0 C0.99 0 1.98 0 3 0 C3.66 3.3 4.32 6.6 5 10 C4.01 10 3.02 10 2 10 C2 9.34 2 8.68 2 8 C0.35 8 -1.3 8 -3 8 C-3 8.66 -3 9.32 -3 10 C-3.99 9.67 -4.98 9.34 -6 9 C-5.07544441 7.491987 -4.1349253 5.99375083 -3.1875 4.5 C-2.66542969 3.6646875 -2.14335937 2.829375 -1.60546875 1.96875 C-1.07566406 1.3190625 -0.54585938 0.669375 0 0 Z " fill="#161616" transform="translate(291,246)"/>
<path d="M0 0 C0.99 0 1.98 0 3 0 C3.66 3.3 4.32 6.6 5 10 C4.01 10 3.02 10 2 10 C2 9.34 2 8.68 2 8 C0.35 8 -1.3 8 -3 8 C-3 8.66 -3 9.32 -3 10 C-3.99 9.67 -4.98 9.34 -6 9 C-5.07544441 7.491987 -4.1349253 5.99375083 -3.1875 4.5 C-2.66542969 3.6646875 -2.14335937 2.829375 -1.60546875 1.96875 C-1.07566406 1.3190625 -0.54585937 0.669375 0 0 Z " fill="#161616" transform="translate(186,246)"/>
<path d="M0 0 C1.98 0 3.96 0 6 0 C6.33 0.66 6.66 1.32 7 2 C5.35 2 3.7 2 2 2 C2 2.66 2 3.32 2 4 C3.32 4.33 4.64 4.66 6 5 C5.125 8.875 5.125 8.875 4 10 C2.33382885 10.04063832 0.66611905 10.042721 -1 10 C-1.33 9.01 -1.66 8.02 -2 7 C0.475 7.495 0.475 7.495 3 8 C3 7.34 3 6.68 3 6 C1.68 5.67 0.36 5.34 -1 5 C-0.67 3.35 -0.34 1.7 0 0 Z " fill="#131313" transform="translate(370,246)"/>
<path d="M0 0 C1.98 0 3.96 0 6 0 C6.33 0.66 6.66 1.32 7 2 C5.35 2 3.7 2 2 2 C2 2.66 2 3.32 2 4 C3.32 4.33 4.64 4.66 6 5 C5.125 8.875 5.125 8.875 4 10 C2.33382885 10.04063832 0.66611905 10.042721 -1 10 C-1.33 9.01 -1.66 8.02 -2 7 C0.475 7.495 0.475 7.495 3 8 C3 7.34 3 6.68 3 6 C1.68 5.67 0.36 5.34 -1 5 C-0.67 3.35 -0.34 1.7 0 0 Z " fill="#131313" transform="translate(106,246)"/>
<path d="M0 0 C2.31 0 4.62 0 7 0 C7 0.66 7 1.32 7 2 C5.35 2 3.7 2 2 2 C2 2.66 2 3.32 2 4 C3.32 4 4.64 4 6 4 C6 4.66 6 5.32 6 6 C4.35 6 2.7 6 1 6 C1 6.66 1 7.32 1 8 C2.65 8 4.3 8 6 8 C6 8.66 6 9.32 6 10 C3.69 10 1.38 10 -1 10 C-1.125 3.375 -1.125 3.375 0 0 Z " fill="#202020" transform="translate(329,246)"/>
<path d="M0 0 C0 0.99 0 1.98 0 3 C-1.65 3 -3.3 3 -5 3 C-5.33 4.65 -5.66 6.3 -6 8 C-4.02 7.67 -2.04 7.34 0 7 C0 7.66 0 8.32 0 9 C-3.375 9.625 -3.375 9.625 -7 10 C-9 8 -9 8 -9.3125 5.5625 C-9 3 -9 3 -7.875 1.1875 C-5.22464043 -0.49106106 -3.06753576 -0.20450238 0 0 Z " fill="#121212" transform="translate(252,246)"/>
<path d="M0 0 C2.64 0 5.28 0 8 0 C8 0.66 8 1.32 8 2 C6.68 2 5.36 2 4 2 C4 4.64 4 7.28 4 10 C3.01 10 2.02 10 1 10 C1.33 7.03 1.66 4.06 2 1 C1.34 0.67 0.68 0.34 0 0 Z " fill="#181818" transform="translate(309,246)"/>
<path d="M0 0 C1.32 0 2.64 0 4 0 C4 1.65 4 3.3 4 5 C2.35 5.33 0.7 5.66 -1 6 C-1.042721 4.33388095 -1.04063832 2.66617115 -1 1 C-0.67 0.67 -0.34 0.34 0 0 Z " fill="#D1D1D1" transform="translate(268,248)"/>
<path d="M0 0 C0.99 0 1.98 0 3 0 C2.67 3.3 2.34 6.6 2 10 C1.34 10 0.68 10 0 10 C0 8.35 0 6.7 0 5 C-0.66 5 -1.32 5 -2 5 C-1.34 3.35 -0.68 1.7 0 0 Z " fill="#131313" transform="translate(213,246)"/>
<path d="M0 0 C0 1.65 0 3.3 0 5 C-0.66 5 -1.32 5 -2 5 C-2.33 5.66 -2.66 6.32 -3 7 C-3 6.34 -3 5.68 -3 5 C-3.99 5 -4.98 5 -6 5 C-5.6875 3.0625 -5.6875 3.0625 -5 1 C-2 0 -2 0 0 0 Z " fill="#484848" transform="translate(356,246)"/>
<path d="M0 0 C0.99 0 1.98 0 3 0 C2.34 3.3 1.68 6.6 1 10 C0.34 10 -0.32 10 -1 10 C-0.67 6.7 -0.34 3.4 0 0 Z " fill="#1E1E1E" transform="translate(146,246)"/>
<path d="M0 0 C0.99 0 1.98 0 3 0 C2.67 1.98 2.34 3.96 2 6 C0.35 6 -1.3 6 -3 6 C-1.125 1.125 -1.125 1.125 0 0 Z " fill="#353535" transform="translate(291,246)"/>
<path d="M0 0 C0.99 0 1.98 0 3 0 C2.67 1.98 2.34 3.96 2 6 C0.35 6 -1.3 6 -3 6 C-1.125 1.125 -1.125 1.125 0 0 Z " fill="#353535" transform="translate(186,246)"/>
<path d="M0 0 C1.65 0 3.3 0 5 0 C5.33 0.66 5.66 1.32 6 2 C5.67 2.99 5.34 3.98 5 5 C3.68 5 2.36 5 1 5 C0.67 3.35 0.34 1.7 0 0 Z " fill="#5F5F5F" transform="translate(126,245)"/>
<path d="M0 0 C0.94875 0.04125 1.8975 0.0825 2.875 0.125 C2.875 1.115 2.875 2.105 2.875 3.125 C1.225 3.125 -0.425 3.125 -2.125 3.125 C-2.785 4.445 -3.445 5.765 -4.125 7.125 C-4.75 4.75 -4.75 4.75 -5.125 2.125 C-3.125 0.125 -3.125 0.125 0 0 Z " fill="#252525" transform="translate(249.125,245.875)"/>
<path d="M0 0 C-0.33 1.32 -0.66 2.64 -1 4 C-2.65 3.67 -4.3 3.34 -6 3 C-6 2.01 -6 1.02 -6 0 C-3 -1 -3 -1 0 0 Z " fill="#5E5E5E" transform="translate(170,247)"/>
<path d="M0 0 C0.99 0 1.98 0 3 0 C3 1.65 3 3.3 3 5 C2.34 4.34 1.68 3.68 1 3 C0.67 3.66 0.34 4.32 0 5 C-0.99 5 -1.98 5 -3 5 C-2.67 3.68 -2.34 2.36 -2 1 C-1.34 1.33 -0.68 1.66 0 2 C0 1.34 0 0.68 0 0 Z " fill="#2B2B2B" transform="translate(210,251)"/>
<path d="M0 0 C1.32 0.66 2.64 1.32 4 2 C3.01 2.33 2.02 2.66 1 3 C0.30062468 4.31647119 -0.36729133 5.65022151 -1 7 C-1.99 7.495 -1.99 7.495 -3 8 C-3.36923077 3.44615385 -3.36923077 3.44615385 -1.5 1.1875 C-1.005 0.795625 -0.51 0.40375 0 0 Z " fill="#2F2F2F" transform="translate(267,246)"/>
<path d="M0 0 C1.98 0 3.96 0 6 0 C6.33 0.66 6.66 1.32 7 2 C5.576875 2.185625 5.576875 2.185625 4.125 2.375 C0.91332809 2.71687177 0.91332809 2.71687177 -1 5 C-0.67 3.35 -0.34 1.7 0 0 Z " fill="#313131" transform="translate(370,246)"/>
<path d="M0 0 C1.98 0 3.96 0 6 0 C6.33 0.66 6.66 1.32 7 2 C5.576875 2.185625 5.576875 2.185625 4.125 2.375 C0.91332809 2.71687177 0.91332809 2.71687177 -1 5 C-0.67 3.35 -0.34 1.7 0 0 Z " fill="#313131" transform="translate(106,246)"/>
<path d="M0 0 C0.33 0.66 0.66 1.32 1 2 C2.65 2 4.3 2 6 2 C6 2.66 6 3.32 6 4 C3.69 4 1.38 4 -1 4 C-0.67 2.68 -0.34 1.36 0 0 Z " fill="#030303" transform="translate(329,252)"/>
</svg>
